<?xml version="1.0" standalone="no"?>
<!DOCTYPE svg PUBLIC "-//W3C//DTD SVG 20010904//EN"
 "http://www.w3.org/TR/2001/REC-SVG-20010904/DTD/svg10.dtd">
<svg version="1.0" xmlns="http://www.w3.org/2000/svg"
 width="512.000000pt" height="512.000000pt" viewBox="0 0 512.000000 512.000000"
 preserveAspectRatio="xMidYMid meet">
<metadata>
Created by potrace 1.11, written by Peter Selinger 2001-2013
</metadata>
<g transform="translate(0.000000,512.000000) scale(0.100000,-0.100000)"
fill="#000000" stroke="none">
<path d="M2378 5115 c-2 -1 -39 -5 -82 -9 -44 -4 -82 -9 -85 -11 -4 -2 -34 -7
-66 -10 -117 -14 -472 -111 -499 -136 -6 -5 -16 -9 -23 -9 -8 0 -49 -16 -91
-35 -352 -161 -618 -354 -877 -637 -33 -36 -71 -80 -85 -98 -14 -18 -29 -38
-35 -44 -82 -92 -246 -369 -323 -546 -61 -142 -131 -351 -146 -443 -3 -15 -7
-35 -10 -45 -3 -9 -7 -34 -11 -56 -3 -21 -7 -41 -9 -45 -4 -6 -12 -72 -26
-201 -8 -85 -5 -454 5 -515 30 -190 39 -241 57 -315 29 -124 102 -337 152
-445 25 -52 42 -96 38 -96 -4 -1 -32 -2 -62 -3 l-55 -1 0 -111 c0 -106 1 -112
28 -147 44 -58 77 -70 191 -72 109 -2 98 4 171 -90 107 -137 197 -233 340
-360 261 -232 591 -416 940 -524 123 -38 289 -74 405 -87 30 -3 76 -10 103
-14 48 -7 472 -5 517 4 14 2 45 7 70 10 25 4 92 16 150 27 58 12 115 23 128
25 38 7 320 103 370 125 356 160 631 355 888 630 56 60 176 207 191 234 9 15
27 18 114 19 110 2 144 12 186 58 34 36 41 67 39 173 l-1 100 -62 -1 c-35 -1
-63 2 -63 5 0 4 6 15 13 26 22 32 102 232 135 336 40 125 84 319 98 429 28
225 26 531 -5 735 -97 635 -436 1219 -943 1622 -100 80 -251 179 -368 243 -81
43 -131 67 -275 130 -133 58 -419 133 -595 156 -25 3 -56 8 -70 10 -27 6 -456
14 -462 9z"/>
</g>
</svg>
